# xmcd
#
# Track frame offsets: 
#        150
#        19774
#        33747
#        46354
#        63752
#        78377
#        92829
#        102172
#        114567
#        128822
#        140304
#
# Disc length: 2054 seconds
#
# Revision: 1
# Processed by: cddbd v1.5.2PL0 Copyright (c) Steve Scherf et al.
# Submitted via: ExactAudioCopy v0.99pb5
#
DISCID=8c08040b
DTITLE=Star Sisters - Hooray for Hollywood
DYEAR=1984
DGENRE=Pop
TTITLE0=A tribute to Marilyn Monroe: My heart belongs to daddy - I wan
TTITLE0=na be loved by you - Diamonds are the girls best friend
TTITLE1=Alexanders ragtime band
TTITLE2=Mister Sandman
TTITLE3=Cry me a river
TTITLE4=This is only the beginning
TTITLE5=Hooray for Hollywood - Hallelujah - There's no business like s
TTITLE5=howbusiness
TTITLE6=Sentimental gentleman
TTITLE7=Lullaby of Broadway
TTITLE8=Hawaiian summer
TTITLE9=Drivin' with my baby
TTITLE10=Showbusiness
EXTD=
EXTT0=
EXTT1=
EXTT2=
EXTT3=
EXTT4=
EXTT5=
EXTT6=
EXTT7=
EXTT8=
EXTT9=
EXTT10=
PLAYORDER=
